<?xml version="1.0" encoding="UTF-8"?>
<svg width="102px" height="102px" viewBox="0 0 102 102" version="1.1" xmlns="http://www.w3.org/2000/svg" xmlns:xlink="http://www.w3.org/1999/xlink">
    <!-- Generator: Sketch 47.1 (45422) - http://www.bohemiancoding.com/sketch -->
    <title>App Icon</title>
    <desc>Created with Sketch.</desc>
    <defs></defs>
    <g id="Design-Work" stroke="none" stroke-width="1" fill="none" fill-rule="evenodd">
        <g id="Brand-Guidelines---Update-(Desktop)" transform="translate(-906.000000, -1398.000000)">
            <g id="Group-11" transform="translate(250.000000, 954.000000)">
                <g id="App-Icon" transform="translate(656.000000, 444.000000)">
                    <path d="M85.747252,0 C94.722232,0 101.999932,7.25250498 101.999932,16.2000399 L101.999932,85.4624452 C101.999932,94.4082857 94.722232,101.661807 85.747252,101.661807 L16.253292,101.661807 C7.277292,101.661807 -6.80000012e-05,94.4082857 -6.80000012e-05,85.4624452 L-6.80000012e-05,16.2000399 C-6.80000012e-05,7.25250498 7.277292,0 16.253292,0 L85.747252,0 Z" id="Fill-1" fill="#FFFC00"></path>
                    <path d="M51.374374,85.7412 C51.181934,85.7412 50.992554,85.7351003 50.803174,85.7266286 L50.802834,85.7266286 C50.682474,85.7361169 50.556334,85.7412 50.430194,85.7412 C46.003394,85.7412 43.162014,83.7391535 40.414474,81.8031867 C38.517614,80.4673595 36.727514,79.2060837 34.618154,78.8560306 C33.588634,78.6862565 32.564554,78.6001834 31.574134,78.6001834 C29.790494,78.6001834 28.383234,78.8743296 27.355754,79.074602 C26.731514,79.1962565 26.192954,79.3009674 25.783934,79.3009674 C25.356554,79.3009674 24.893134,79.2087947 24.691514,78.5232598 C24.516414,77.9288811 24.390274,77.3534791 24.268894,76.796715 C23.954734,75.3643096 23.732374,74.4832465 23.129894,74.3910738 C16.108214,73.3100771 14.099154,71.8366684 13.651034,70.7909143 C13.587454,70.6411336 13.551414,70.4916917 13.542914,70.3432664 C13.520134,69.941705 13.805394,69.5865688 14.204214,69.5218445 C24.996834,67.749891 29.836734,56.7562565 30.037674,56.2889542 C30.043114,56.2760771 30.048894,56.2638777 30.055014,56.2510007 C30.715294,54.9165289 30.845174,53.7582698 30.440914,52.8090937 C29.700054,51.0693329 27.284014,50.3051801 25.684994,49.7992465 C25.293654,49.6758977 24.923054,49.5589874 24.630654,49.4437714 C21.440094,48.1872399 21.174214,46.8961435 21.299674,46.2387349 C21.513874,45.1180904 23.016334,44.336994 24.231154,44.336994 C24.564694,44.336994 24.858454,44.3956186 25.104614,44.5101568 C26.540434,45.1807814 27.834134,45.5206684 28.950014,45.5206684 C30.492254,45.5206684 31.165794,44.8741037 31.247734,44.789386 C31.208634,44.0614924 31.160354,43.3010671 31.110374,42.5169209 C30.789414,37.4311535 30.390594,31.1115588 32.004914,27.5046219 C36.843454,16.6916053 47.103294,15.8518844 50.132694,15.8518844 C50.210214,15.8518844 51.460734,15.8390073 51.460734,15.8390073 L51.640254,15.8379907 C54.676454,15.8379907 64.959074,16.6790671 69.799994,27.4978445 C71.414994,31.1071535 71.015834,37.4318312 70.693854,42.5138711 L70.680254,42.7344757 C70.635714,43.4420372 70.592874,44.1296053 70.556834,44.7883694 C70.634014,44.8673262 71.253154,45.4606884 72.650894,45.5145688 L72.652934,45.5145688 C73.715434,45.4742432 74.936374,45.1363894 76.276654,44.5101568 C76.669014,44.3275056 77.105574,44.2892133 77.402734,44.2892133 C77.856294,44.2892133 78.315634,44.3766419 78.697454,44.5355721 L78.720914,44.5447216 C79.804834,44.9279841 80.514754,45.6850206 80.530054,46.4762831 C80.544334,47.2214591 79.973814,48.3417648 77.173914,49.4437714 C76.883554,49.5579708 76.512954,49.6748811 76.119914,49.7992465 C74.519194,50.3055189 72.104514,51.0696718 71.364334,52.8087548 C70.959734,53.757592 71.089274,54.9155123 71.749894,56.2503229 C71.755674,56.2628611 71.762134,56.2757382 71.767234,56.2886153 C71.968174,56.7552399 76.803994,67.7468412 87.601374,69.5198113 C88.000194,69.5855522 88.285114,69.9400106 88.262674,70.3422498 C88.253834,70.4927083 88.216774,70.6441834 88.152174,70.7919309 C87.706774,71.8305688 85.699074,73.3022831 78.676034,74.3836186 C78.102114,74.4717249 77.879414,75.216901 77.537034,76.7801103 C77.412934,77.3480571 77.286794,77.9068545 77.113394,78.4947947 C76.963794,79.0041169 76.644534,79.2423429 76.108354,79.2423429 L76.020974,79.2423429 C75.649014,79.2423429 75.119974,79.176602 74.449834,79.0451203 C73.260854,78.8140106 71.927374,78.6001834 70.231114,78.6001834 C69.240694,78.6001834 68.215934,78.6862565 67.185734,78.8563694 C65.078754,79.2060837 63.290014,80.4653262 61.396214,81.7991203 C58.643234,83.7391535 55.802194,85.7412 51.374374,85.7412" id="Fill-4" fill="#FFFFFF"></path>
                    <path d="M51.640322,15.0499814 L51.636922,15.0499814 C51.571302,15.0499814 51.509422,15.0499814 51.450602,15.050998 C51.450602,15.050998 50.227622,15.0628585 50.130722,15.0631973 C46.983002,15.0631973 36.314822,15.9371442 31.281802,27.1835761 C29.588942,30.9674033 29.994562,37.3937422 30.320282,42.5574498 C30.359042,43.1664 30.399162,43.7980545 30.434522,44.4093767 C30.174422,44.5527189 29.698422,44.7316425 28.950082,44.7316425 C27.950822,44.7316425 26.770682,44.4168319 25.440942,43.7963601 C25.088022,43.6316691 24.681042,43.5493236 24.231222,43.5493236 C22.674702,43.5493236 20.812522,44.5700013 20.522502,46.0918684 C20.313742,47.1870977 20.805722,48.7852106 24.340022,50.1766126 C24.658602,50.3019947 25.041782,50.4233103 25.446722,50.5510645 C26.906682,51.0129449 29.113622,51.7116957 29.712362,53.1173302 C30.022782,53.8455628 29.899362,54.7828784 29.345842,55.9028452 C29.333602,55.9279216 29.321362,55.9533369 29.310142,55.9787522 C29.116002,56.4294498 24.445422,67.0418551 14.075422,68.7433236 C13.277782,68.8744664 12.707942,69.5833834 12.752822,70.3875229 C12.766082,70.6264266 12.822862,70.8649914 12.921122,71.0957621 C13.699722,72.9093967 16.982762,74.2381076 22.960302,75.162885 C23.160222,75.432287 23.367962,76.3834963 23.495462,76.9629648 C23.620242,77.5353169 23.749442,78.1249515 23.932702,78.7467787 C24.112902,79.3584399 24.580742,80.0897223 25.784002,80.0897223 C26.269862,80.0897223 26.843442,79.977895 27.507462,79.8484465 C28.503322,79.6539349 29.866722,79.3885993 31.573862,79.3885993 C32.521102,79.3885993 33.502002,79.470606 34.489702,79.6339415 C36.418862,79.9541741 38.058002,81.1087056 39.955542,82.4458884 C42.673502,84.3611841 45.751522,86.5299548 50.429922,86.5299548 C50.558442,86.5299548 50.687642,86.5255495 50.815482,86.5164 C50.967462,86.5228385 51.164662,86.5299548 51.374442,86.5299548 C56.053862,86.5299548 59.131542,84.3605063 61.847462,82.4465661 C63.749422,81.107689 65.387542,79.9534963 67.316022,79.6339415 C68.303042,79.470606 69.284282,79.3885993 70.231182,79.3885993 C71.860462,79.3885993 73.148382,79.5956492 74.298262,79.8189648 C75.018382,79.959596 75.598082,80.0310977 76.021042,80.0310977 L76.065242,80.0314365 L76.108422,80.0314365 C76.997182,80.0314365 77.624142,79.5637953 77.872682,78.714586 C78.053222,78.1046193 78.182082,77.5305728 78.309922,76.9483934 C78.436742,76.3706193 78.643462,75.4238153 78.842702,75.1557688 C84.821942,74.2313302 88.104642,72.9039748 88.880862,71.0984731 C88.980822,70.8677023 89.038282,70.6274432 89.051882,70.3861674 C89.097102,69.581689 88.526582,68.873111 87.729962,68.7419681 C77.355202,67.0388053 72.688362,56.4284332 72.494562,55.9780744 C72.483682,55.9523203 72.471782,55.926905 72.458862,55.9014897 C71.905342,54.7822007 71.782262,53.8452239 72.092002,53.1173302 C72.690742,51.7116957 74.896662,51.0129449 76.356622,50.5517422 C76.765302,50.4226326 77.149162,50.3009781 77.464682,50.1766126 C80.051402,49.158307 81.348842,47.908214 81.321302,46.4608983 C81.298862,45.3236492 80.410102,44.3090711 78.998082,43.8061874 L78.994002,43.804493 C78.519022,43.608287 77.954962,43.5008651 77.402462,43.5008651 C77.025062,43.5008651 76.465422,43.5516957 75.941822,43.7960213 C74.711702,44.3704066 73.605682,44.6831841 72.653002,44.7255429 C72.020602,44.6964 71.607162,44.5374698 71.371202,44.4080213 C71.400782,43.8844664 71.434782,43.3449847 71.470142,42.7807654 L71.483402,42.5618551 C71.810822,37.3947588 72.217122,30.962998 70.522562,27.1764598 C65.487842,15.924606 54.796882,15.0499814 51.640322,15.0499814 M51.640322,16.6264066 C54.514682,16.6267455 64.413102,17.3953037 69.078242,27.8189581 C70.613682,31.2510379 70.220642,37.4682937 69.905122,42.4635827 C69.854802,43.2558618 69.806182,44.0240811 69.766742,44.7580744 L69.749402,45.072885 L69.961222,45.3080611 C70.046222,45.4022671 70.844882,46.2335163 72.620362,46.3026458 L72.649942,46.3036625 L72.678842,46.3026458 C73.852522,46.2582538 75.175802,45.8953236 76.612302,45.2243601 C76.823102,45.1260877 77.104962,45.0776292 77.402462,45.0776292 C77.742462,45.0776292 78.102862,45.140998 78.400362,45.2660412 L78.445582,45.2840013 C79.198002,45.5469648 79.730442,46.0430711 79.739622,46.4913967 C79.743702,46.7458884 79.552962,47.6591442 76.883282,48.7103203 C76.622502,48.8133369 76.278762,48.9217754 75.880622,49.0471575 C74.143902,49.5971442 71.519442,50.426699 70.635782,52.500586 C70.137682,53.6703668 70.273682,55.0488917 71.040042,56.598885 C71.355222,57.3325395 76.312762,68.4657887 87.472582,70.2980611 C87.469522,70.3499083 87.456942,70.4085329 87.426682,70.476307 C87.236962,70.9202272 86.034722,72.4532771 78.555062,73.6044199 C77.384442,73.7840213 77.097142,75.0910445 76.764622,76.611895 C76.645622,77.1557821 76.522202,77.7037355 76.354242,78.2723601 C76.303922,78.4441674 76.294062,78.4543336 76.108422,78.4543336 L76.021042,78.4543336 C75.689542,78.4543336 75.184982,78.3855429 74.601202,78.2713435 C73.540742,78.0649714 72.087242,77.8114963 70.231182,77.8114963 C69.195202,77.8114963 68.127262,77.9016359 67.056942,78.0785262 C64.768062,78.4584 62.905882,79.7705063 60.933542,81.1591973 C58.286642,83.0250179 55.549982,84.9531907 51.374442,84.9531907 C51.193222,84.9531907 51.014382,84.947091 50.835882,84.9382804 L50.788962,84.9362472 L50.741022,84.9403136 C50.639022,84.9487854 50.536002,84.9531907 50.429922,84.9531907 C46.255402,84.9531907 43.517722,83.0250179 40.871162,81.1598751 C38.899502,79.7705063 37.036982,78.4584 34.748442,78.0785262 C33.677782,77.9016359 32.609842,77.8114963 31.573862,77.8114963 C29.718142,77.8114963 28.264302,78.0937754 27.203842,78.3008252 C26.620062,78.4143468 26.115162,78.5122804 25.784002,78.5122804 C25.513022,78.5122804 25.507922,78.4966924 25.450802,78.3018419 C25.283522,77.7335561 25.160102,77.1703535 25.041102,76.6271442 C24.707902,75.1059548 24.419582,73.7914764 23.250322,73.6111973 C15.770322,72.4603934 14.568082,70.9236159 14.378022,70.4807123 C14.348442,70.4119216 14.335522,70.3519415 14.332462,70.2994166 C25.491262,68.4674831 30.448802,57.3349116 30.764662,56.5995628 C31.531022,55.0492306 31.667362,53.6710445 31.168922,52.5016027 C30.286282,50.4273767 27.661482,49.5971442 25.924422,49.0471575 C25.526282,48.9224532 25.182882,48.8133369 24.921762,48.7103203 C22.666202,47.8224797 21.973282,46.9282007 22.076982,46.3863468 C22.196322,45.7614698 23.283302,45.1257488 24.231222,45.1257488 C24.445082,45.1257488 24.631062,45.1596359 24.769782,45.2243601 C26.310322,45.9434432 27.717582,46.3084066 28.950082,46.3084066 C30.890122,46.3084066 31.753042,45.4093834 31.844842,45.3070445 L32.055642,45.072885 L32.038302,44.759091 C31.998182,44.0261143 31.950582,43.2585728 31.899582,42.4669714 C31.584402,37.4713435 31.191362,31.2578153 32.727482,27.8257355 C37.374602,17.4407123 47.224742,16.6399615 50.132422,16.6399615 C50.204162,16.6399615 51.468622,16.6274233 51.468622,16.6274233 C51.522342,16.6267455 51.579462,16.6264066 51.640322,16.6264066" id="Fill-6" fill="#231F20"></path>
                </g>
            </g>
        </g>
    </g>
</svg>